Patient4_TMGait_0pt8_01_left_29_EMG.mot
version=1
nRows=30
nColumns=33
inDegrees=no
endheader
time	1LAddLong	2LGlutMax	3LGlutMed	4LIliopsoas	5LSemiMemb	6LBicFemLong	7LRecFem	8LVastMed	9LVastLat	10LGasMed	11LTibAnt	12lTibPost	13LPeroneusLong	14LSol	15LExtDigLong	16LFlexDigLong	17RAddLong	18RGlutMax	19RGlutMed	20RIliopsoas	21RSemiMemb	22RBicFemLong	23RRecFem	24RVastMed	25RVastLat	26RGasMed	27RTibAnt	28RTibPost	29RPeroneusLong	30RSol	31RExtDigLong	32RFlexDigLong
32.22	0.012054	0.90637	-0.14358	-0.007935	0.048523	-0.059509	-0.20432	0.008392	-0.13611	-0.59113	-0.024719	0.10178	0.18341	-1.1795	-0.2095	0.33814	-0.10651	0.10773	0.27481	-0.034637	-0.064087	0.48996	0.82718	-0.12802	0.040588	0.011902	-0.48675	-0.022888	0.053253	0.042114	-0.000763	-0.000305
32.221	0.008087	0.87082	-0.32959	-0.035858	0.058594	0.024872	-0.062103	-0.015259	-0.58044	0.025024	0.005341	0.034485	0.10773	-0.62759	-0.082092	0.082855	-0.097809	0.082397	0.24384	-0.045471	0.065918	0.47852	0.80399	-0.09613	0.056915	0.003357	-0.16007	-0.022736	0.005341	0.16098	-0.00061	-0.002136
32.222	-0.007477	0.85022	-0.1564	-0.013885	0.042419	0.15381	0.044708	-0.019379	-0.8902	-0.088043	0.013428	-0.057068	0.009766	0.38803	-0.088196	0.085602	-0.039368	0.11398	0.35812	-0.10346	0.16327	0.28137	0.82657	-0.14313	0.039825	0.005798	-0.49072	-0.018768	0.11948	0.22949	0.000763	0.007324
32.223	-0.029144	0.85007	-0.15518	0.015259	-0.025635	0.14252	0.04837	-0.00473	-0.75134	-0.50552	0.011139	-0.079193	-0.010834	0.79132	-0.10223	0.29144	-0.019531	0.092468	0.3067	-0.11459	0.18555	0.22522	0.86365	-0.096436	0.033722	0.003662	-0.32333	-0.013123	0.15686	0.30701	-0.000763	-0.00885
32.224	-0.02533	0.82764	0.063934	0.004578	-0.051575	0.024567	0.088348	0.013733	-0.58624	-0.37582	0	0.014191	0.016022	0.71274	-0.11597	0.10101	0.010223	0.058594	0.26947	-0.079193	0.15747	0.19302	0.93475	-0.18448	0.015411	-0.001373	-0.12894	-0.015717	0.16083	0.3569	-0.002136	-0.00351
32.225	-0.02121	0.81421	0.10971	0.00061	-0.066833	-0.027161	0.21744	0.022125	-0.44357	-0.20706	0.005341	0.046234	0.068359	0.48248	-0.062866	0.087738	0.01236	0.13199	0.23331	-0.010986	0.12146	0.09964	0.89203	-0.21133	0.012207	-0.001221	0.52795	-0.013275	-0.021973	0.3598	-0.002747	0.003052
32.226	-0.019531	0.78064	-0.081482	0.023041	-0.20523	-0.02533	0.34546	0.009766	-0.28732	-0.10483	0.003357	0.036926	0.12772	0.3244	-0.023346	0.053406	0.055847	0.075378	0.19165	0.02655	0.06134	0.010681	0.92606	-0.29022	-0.006714	-0.006561	0.82764	-0.009308	-0.14694	0.30273	-0.001984	-0.000916
32.227	-0.035858	0.7695	0.065002	0.009003	-0.25635	0.032806	0.43152	-0.00061	-0.1651	-0.12116	0.003967	0.022125	0.14145	0.22751	0.00473	0.035706	0.044098	0.017548	0.30289	0.10849	0.02121	0	0.8136	-0.24139	0.016479	0.012512	0.1564	-0.010681	-0.050049	0.16861	-0.001373	-0.004272
32.228	-0.036774	0.7579	-0.015411	0.008087	-0.29388	-0.090485	0.40909	-0.006866	-0.14725	-0.13001	-0.009003	0.11536	0.088806	0.27023	0.035553	0.033417	0.004883	0.050049	0.2533	0.18646	0.001831	0.064545	0.72845	-0.24216	0.041351	0.010529	-0.86823	-0.010529	0.033569	0.023041	0.000305	-0.001678
32.229	-0.031433	0.82214	-0.092163	0.007172	-0.15518	-0.18814	0.31677	-0.01358	-0.18204	-0.095825	-0.006409	0.065002	0.085144	0.31891	0.058746	0.027161	0.007629	-0.016479	0.11414	0.17349	-0.00061	0.11856	0.67734	-0.22049	0.043945	0.002747	-0.61859	-0.006561	0.037689	0.016937	-0.002747	-0.009766
32.23	-0.011902	0.84656	-0.048218	0.008392	-0.10788	-0.16068	0.34027	-0.017548	-0.16113	-0.078735	-0.005646	-0.034943	0.050659	0.2945	0.059204	0.005951	0.018921	0.011139	-0.059357	0.1207	-0.024567	0.1152	0.6311	-0.18997	0.032501	-0.006561	-0.63873	-0.007172	-0.075836	0.084534	-0.00061	-0.016174
32.231	0.028687	0.78384	-0.041046	0.005951	-0.016327	-0.15945	0.33966	-0.02121	-0.11597	-0.028076	0.026093	0.047455	0.019073	0.16922	0.029755	0.009155	0.033722	-0.01236	-0.14221	0.063934	0.008087	0.17929	0.62592	-0.12177	0.022125	-0.001984	-0.17487	-0.001221	-0.055389	0.071564	-0.000916	-0.015259
32.232	0.035706	0.81131	0.036011	0.009003	0.099335	0.020294	0.41184	-0.010223	-0.16342	-0.051727	0.017853	0.014648	0.046997	0.15656	0.006104	0.010071	0.030212	-0.037537	-0.17288	0.019379	0.02533	0.11917	0.61905	-0.051727	0.037079	0.000763	0.47974	-0.002136	-0.027008	0.070648	0.005341	-0.016785
32.233	0.025635	0.84503	0.21576	0.010986	0.050507	0.18906	0.52506	-0.002747	-0.21362	-0.049133	0.002747	0.004425	0.074615	0.014801	0.007172	-0.024567	0.075684	-0.018158	-0.17563	-0.001831	0.014954	0.07019	0.63263	-0.023651	0.027771	0.001526	0.33432	-0.010834	-0.088348	0.055389	-0.006714	-0.012665
32.234	0.019836	0.96039	0.36163	0.028687	-0.037994	0.41672	0.578	-0.002594	-0.23666	-0.006104	-0.001373	0.015259	0.044861	0.016632	0.007782	-0.020447	0.061646	-0.025787	-0.12039	-0.038452	-0.000458	0.035553	0.62759	-0.067291	0.036926	-0.013123	0.14221	-0.002899	-0.20584	0.061035	-0.000458	-0.013275
32.235	0.023651	1.0442	0.37994	0.028229	-0.052338	0.41519	0.56107	-0.012054	-0.24628	0.022583	0.003815	0.036926	0.043488	-0.055389	0.01709	-0.015259	0.03006	-0.014343	0.019073	-0.071869	0.00351	-0.004883	0.62561	-0.14374	0.044098	-0.012665	-0.11887	-0.003662	-0.27115	0.041504	0.003815	-0.014801
32.236	0.032654	0.9465	0.38391	0.018463	-0.062561	0.24216	0.46402	-0.010376	-0.27802	0.056915	-0.00061	0.021057	0.063629	-0.038757	0.03952	-0.021515	-0.018005	-0.1001	-0.14618	-0.053101	-0.01709	-0.05661	0.61844	-0.12451	0.037537	-0.009918	-0.40527	-0.003204	-0.21286	-0.073242	0.000153	-0.013123
32.237	0.020447	0.86502	0.39002	0.013733	-0.084229	0.25482	0.3746	-0.010986	-0.28763	-0.0177	-0.007172	0.020599	0.048218	-0.035858	0.004578	-0.026855	-0.00946	0.019684	-0.22446	-0.11795	0.007782	0.020447	0.578	-0.12207	0.038757	0.000916	-0.27741	-0.002899	-0.024109	-0.14648	-0.000458	0.000305
32.238	0.013275	0.79605	0.27573	0.012817	-0.018158	0.15915	0.23468	-0.000763	-0.23651	-0.17853	-0.010376	-0.001831	0.043335	0.031128	0.000916	-0.031891	0.018311	0.002289	-0.40359	-0.023041	-0.069122	0.066833	0.59448	-0.10162	0.042572	0.026398	-0.012817	-0.001373	0.25055	-0.22766	0	0.006714
32.239	0.018311	0.65002	-0.081787	0.003357	0.041962	-0.11795	0.043335	0.009308	-0.099792	-0.055084	-0.012207	-0.002594	0.066376	0.11627	-0.005646	-0.032654	0.014801	-0.001373	-0.33676	-0.042114	-0.097198	0.076294	0.54489	-0.21454	0.053101	0.016632	0.41946	-0.002747	0.19638	-0.080109	0.000153	0.006561
32.24	0.009155	0.67139	-0.20493	0.002899	0.042572	-0.18799	-0.10498	0.012512	-0.016022	0.14664	-0.000153	0.084076	0.11108	0.2063	0.01297	-0.034637	0.009613	-0.034943	-0.34515	0.014648	-0.18082	0.13794	0.56641	-0.26123	0.008545	0.003815	0.50842	-0.00412	-0.046692	0.10147	0.001068	-0.003357
32.241	0.004425	0.72052	-0.14618	0.018005	0.011292	0.012665	-0.11124	0.020447	-0.054016	0.26779	0.017242	-0.068817	0.15656	0.1712	0.024261	-0.007782	0.037537	-0.014038	-0.5423	0.007324	-0.15579	0.26764	0.57312	-0.30563	-0.017548	0.005341	-0.099792	-0.002899	0.031128	0.027313	0.001221	-0.002899
32.242	0.001373	0.76294	-0.018616	0.002136	0.057983	-0.009308	-0.1178	0.036316	-0.13672	0.21072	0.00351	-0.096283	0.38437	-0.024261	0.042267	0.011902	0.14069	0.031891	-0.7161	0.008087	-0.10391	0.33722	0.5191	-0.28488	-0.019379	0.001831	0.093689	-0.002747	-0.090942	-0.044403	-0.002136	-0.010376
32.243	-0.001678	0.68466	-0.18616	-0.005951	0.018616	0.05188	-0.086365	0.02655	-0.14404	-0.21423	-0.015106	0.061951	0.16434	-0.18127	0.056915	-0.043182	0.22461	0.014648	-0.79468	0.041504	-0.04303	0.1535	0.56549	-0.19547	-0.009308	0.002594	0.51819	-0.001678	-0.15915	-0.17273	-0.001373	-0.00946
32.244	-0.005035	0.6308	-0.35889	-0.009766	-0.042267	0.18143	-0.18829	0.005188	-0.16083	-0.21301	-0.063171	-0.12238	0.27176	-0.22614	0.066223	-0.030212	0.24979	0.010223	-0.84137	0.031281	0.02533	0.051422	0.55237	-0.23132	-0.032806	0.010376	0.34134	-0.001373	-0.0737	-0.27344	-0.002594	-0.010376
32.245	0.00946	0.81284	-0.26291	-0.009918	-0.091248	0.2359	-0.26871	-0.007172	-0.12863	-0.11398	-0.055542	0.12711	0.9372	-0.024414	0.042725	0.055389	0.18799	0.07431	-0.68573	0.039978	0.072632	-0.072784	0.62088	-0.22476	-0.02182	0.00824	0.33295	-0.001678	-0.068359	-0.28946	-0.001221	-0.009766
32.246	0.016937	0.93109	-0.35645	0.002441	-0.1059	0.26001	-0.17899	-0.026855	-0.10056	-0.12634	0.008545	0.32623	-0.050049	0.29144	0.09552	-0.17242	0.11368	0.007324	-0.67078	0.022888	-0.008545	-0.08606	0.62241	-0.27191	-0.018005	0.009918	-0.8818	0.000763	-0.088501	-0.38284	-0.002441	-0.01236
32.247	0.020447	0.97794	-0.448	-0.007324	-0.044708	0.2887	-0.1265	-0.021667	-0.09903	-0.33402	0.072327	0.008698	-1.1861	0.3537	0.20935	0.0914	-0.002136	0.006866	-0.86334	0.084229	-0.10208	-0.02655	0.57068	-0.14236	-0.003662	0.010986	-1.7741	-0.001678	0.12146	-0.49362	0.00351	-0.016937
32.248	0.030823	1.1586	-0.47348	0.00824	0.035553	0.25559	-0.20721	0.005188	-0.024719	-0.242	-0.000153	-0.35919	-0.1831	0.22507	-0.13046	0.14816	-0.07309	0.026703	-1.097	0.079651	-0.11368	-0.011292	0.58395	-0.03891	-0.012817	0.010071	-0.85144	0.013275	0.1828	-0.32425	-0.003052	-0.011292
32.249	0.035095	1.2331	-0.29648	-0.004272	0.023651	-0.11047	-0.27786	-0.002441	-0.058746	0.30975	-0.035553	-0.11917	-0.030975	0.12344	-0.12878	-0.10666	-0.12482	0.019379	-1.0735	-0.034943	-0.045776	0.035248	0.58197	0.00061	-0.015869	0.010071	-0.12863	0.031433	0.16449	0.001831	-0.002747	-0.009308
